# xmcd
#
# Track frame offsets: 
#        150
#        18280
#        40245
#        61662
#        86640
#        117732
#        156555
#        172800
#        198302
#        198602
#        219361
#
# Disc length: 3458 seconds
#
# Revision: 0
# Processed by: cddbd v1.5.2PL0 Copyright (c) Steve Scherf et al.
# Submitted via: ExactAudioCopy v1.3
#
DISCID=950d800b
DTITLE=Todd Wolfe - Wolfe
DYEAR=2002
DGENRE=Electric Blues, Blues Rock
TTITLE0=Heaven
TTITLE1=Light of day
TTITLE2=Roll over
TTITLE3=Silver blue
TTITLE4=Black night
TTITLE5=Shame
TTITLE6=On the run
TTITLE7=Wing of the dove
TTITLE8=East of you
TTITLE9=Come in my kitchen
TTITLE10=Change will come
EXTD=
EXTT0=
EXTT1=
EXTT2=
EXTT3=
EXTT4=
EXTT5=
EXTT6=
EXTT7=
EXTT8=
EXTT9=
EXTT10=
PLAYORDER=
